<?xml version="1.0" standalone="no"?>
<!DOCTYPE svg PUBLIC "-//W3C//DTD SVG 20010904//EN"
 "http://www.w3.org/TR/2001/REC-SVG-20010904/DTD/svg10.dtd">
<svg version="1.0" xmlns="http://www.w3.org/2000/svg"
 width="1024.000000pt" height="1024.000000pt" viewBox="0 0 1024.000000 1024.000000"
 preserveAspectRatio="xMidYMid meet">
<metadata>
Created by potrace 1.11, written by Peter Selinger 2001-2013
</metadata>
<g transform="translate(0.000000,1024.000000) scale(0.100000,-0.100000)"
fill="#000000" stroke="none">
<path d="M1450 10233 c-415 -41 -809 -248 -1071 -561 -184 -221 -303 -473
-355 -757 -18 -96 -19 -237 -19 -3795 0 -3558 1 -3699 19 -3795 124 -670 631
-1177 1301 -1301 96 -18 237 -19 3795 -19 3558 0 3699 1 3795 19 373 69 711
263 946 544 184 221 303 473 355 757 18 96 19 237 19 3795 0 3558 -1 3699 -19
3795 -69 373 -263 711 -544 946 -213 178 -442 288 -728 351 l-99 22 -3680 2
c-2024 0 -3696 -1 -3715 -3z m5450 -1289 c0 -3 -304 -316 -676 -695 l-676
-689 -445 0 c-404 0 -445 1 -439 16 3 9 216 322 473 695 l467 679 648 0 c356
0 648 -3 648 -6z m-1460 -2085 c306 -27 551 -94 800 -218 482 -238 739 -641
827 -1292 14 -110 17 -296 20 -1661 l4 -1538 -520 0 -521 0 0 315 c0 265 -2
315 -14 315 -8 0 -40 -37 -72 -82 -71 -103 -264 -296 -364 -365 -206 -140
-472 -237 -766 -278 -125 -18 -418 -20 -544 -5 -585 72 -1008 317 -1259 730
-109 179 -150 335 -158 596 -9 288 24 462 127 670 282 570 925 871 2040 954
74 6 332 13 574 17 l439 6 -6 151 c-7 214 -49 351 -146 473 -80 102 -164 169
-289 232 -266 134 -655 166 -1022 85 -268 -60 -550 -200 -754 -376 l-69 -60
-299 299 c-164 164 -297 303 -296 308 5 19 172 168 272 242 346 258 794 419
1329 477 150 17 512 20 667 5z"/>
<path d="M5330 4203 c-561 -26 -1006 -166 -1195 -375 -129 -142 -153 -383 -59
-571 37 -73 172 -203 259 -249 151 -79 347 -115 584 -105 359 15 613 108 788
288 79 81 114 130 162 227 82 164 108 295 118 588 l6 204 -299 -2 c-164 -1
-328 -3 -364 -5z"/>
</g>
</svg>
